<svg width="300" height="283" viewBox="0 0 300 283" fill="none" xmlns="http://www.w3.org/2000/svg">
<g clip-path="url(#clip0)">
<path d="M124.5 99.5L100 142L124.5 186H174.5L200 142L174.5 99L124.5 99.5Z" fill="#E4E4E4" stroke="#2F80ED" stroke-width="2"/>
<path d="M262.25 120.75L250 142L262.25 164H287.25L300 142L287.25 120.5L262.25 120.75Z" fill="#E4E4E4" stroke="#2F80ED"/>
<path d="M50 142H100M200 142H250M100 55.5L124.5 99.5" stroke="#2F80ED"/>
<path d="M12.25 120.75L0 142L12.25 164H37.25L50 142L37.25 120.5L12.25 120.75Z" fill="#E4E4E4" stroke="#2F80ED"/>
<path d="M75.2555 55.2886L99.7835 55.2725L112.711 33.6636L100.211 12.013L74.7835 11.9712L62.5389 33.763L75.2555 55.2886Z" fill="#E4E4E4" stroke="#2F80ED"/>
<path d="M200.255 271.795L224.783 271.779L237.711 250.17L225.211 228.519L199.783 228.478L187.539 250.269L200.255 271.795Z" fill="#E4E4E4" stroke="#2F80ED"/>
<path d="M187.505 33.7886L199.783 55.0225L224.961 55.4136L237.461 33.763L224.783 11.7212L199.789 12.013L187.505 33.7886Z" fill="#E4E4E4" stroke="#2F80ED"/>
<path d="M62.5055 250.295L74.7835 271.529L99.9611 271.92L112.461 250.269L99.7835 228.228L74.7889 228.519L62.5055 250.295Z" fill="#E4E4E4" stroke="#2F80ED"/>
<path d="M174.5 99L199.5 55M174.5 186L200 228.5M124.5 186L100 228" stroke="#2F80ED"/>
</g>
<defs>
<clipPath id="clip0">
<path d="M0 0.971191H300V282.529H0V0.971191Z" fill="white"/>
</clipPath>
</defs>
</svg>
